# xmcd
#
# Track frame offsets:
#	150
#	15338
#	34450
#	50700
#	72600
#	88677
#	107094
#	127017
#	146055
#	171080
#	187924
#	205459
#	223603
#	243649
#	269215
#
# Disc length: 3871
#
# Revision: 1
# Processed by: cddbd v1.5.1PL0 Copyright (c) Steve Scherf et al.
# Submitted via: VisiTrax 2.9.5.181 - For more info visit www.synapsa.com
# Normalized: r0:DSETVAR1
#
DISCID=f20f1d0f
DTITLE=Various Artist - ALL MY LOVE  VOL. II
DYEAR=1900
DGENRE=
TTITLE0=KANSAS - DUST IN THE WIND
TTITLE1=BAD ENGLISH - WHEN I SEE YOU SMILE
TTITLE2=THE OUTFIELD - YOUR LOVE
TTITLE3=CELINE DION - LOVE CAN MOVE MOUNTAINS
TTITLE4=THE UNION GAP - KISS ME AND GOODBYE
TTITLE5=WILL TO POWER - BABY, I LOVE YOUR WAY
TTITLE6=MANHATTANS - KISS AND SAY GOODBYE
TTITLE7=SADE - LOVE IS STRONGER THAN PRIDE
TTITLE8=CHEAP TRICK - THE FLAME
TTITLE9=CYNDI LAUPER - TRUE COLORS
TTITLE10=WARRANT - HEAVEN
TTITLE11=BASIA - PROMISES
TTITLE12=ELECTRIC LIGHT ORCHESTRA - LAST TRAIN TO LONDON
TTITLE13=BONNIE TYLER - TO LOVE SOMEBODY
TTITLE14=BOSTON - MORE THAN A FEELING
EXTD=
EXTT0=
EXTT1=
EXTT2=
EXTT3=
EXTT4=
EXTT5=
EXTT6=
EXTT7=
EXTT8=
EXTT9=
EXTT10=
EXTT11=
EXTT12=
EXTT13=
EXTT14=
PLAYORDER=
